<svg xmlns="http://www.w3.org/2000/svg" version="1.1" width="400px" height="400px" viewBox="0 0 400 400" style="shape-rendering:geometricPrecision; image-rendering:optimizeQuality; fill-rule:evenodd; clip-rule:evenodd"><path d="M 180.5,38.5 C 208.013,37.1173 234.013,42.6173 258.5,55C 274.108,65.3631 285.608,79.1965 293,96.5C 300.187,115.913 304.853,135.913 307,156.5C 307.216,195.351 308.05,234.184 309.5,273C 308.842,289.501 308.175,306.001 307.5,322.5C 310.031,331.415 307.364,338.248 299.5,343C 282.599,349.755 265.266,351.755 247.5,349C 234.894,345.519 222.227,342.352 209.5,339.5C 193.201,344.367 176.701,348.367 160,351.5C 144.808,348.786 129.808,345.119 115,340.5C 107.174,341.873 99.5069,343.873 92,346.5C 86.0266,345.859 81.6932,342.859 79,337.5C 77.3454,279.558 77.012,221.558 78,163.5C 79.1161,136.702 85.1161,111.035 96,86.5C 107.227,65.2711 124.393,51.4378 147.5,45C 158.495,42.1267 169.495,39.96 180.5,38.5 Z M 143.5,141.5 C 150.491,140.987 154.824,144.154 156.5,151C 153.686,159.412 148.352,161.745 140.5,158C 135.888,151.448 136.888,145.948 143.5,141.5 Z M 230.5,143.5 C 238.761,144.033 242.261,148.366 241,156.5C 235.833,164.079 230.167,164.412 224,157.5C 222.081,151.002 224.247,146.336 230.5,143.5 Z"/></svg>