<svg xmlns="http://www.w3.org/2000/svg" width="24px" height="24px" viewBox="0 0 2048 2048"><g transform="translate(0,2048) scale(0.1,-0.1)" stroke="none"><path d="M9752 17879 c-502 -489 -912 -894 -912 -898 0 -4 1083 -1100 2406 -2435 l2407 -2428 913 913 c503 503 914 918 914 924 0 10 -4800 4815 -4811 4815 -3 0 -416 -401 -917 -891z"/><path d="M7040 15145 l-595 -595 5568 -5568 5567 -5567 597 598 598 597 -5565 5565 c-3061 3061 -5567 5565 -5570 5565 -3 0 -273 -268 -600 -595z"/><path d="M15860 13875 l0 -185 750 0 750 0 0 185 0 185 -750 0 -750 0 0 -185z"/><path d="M4311 12439 c-490 -502 -891 -915 -891 -918 0 -3 1083 -1089 2408 -2414 l2407 -2407 917 917 917 918 -2426 2405 c-1335 1323 -2430 2406 -2434 2408 -4 2 -408 -407 -898 -909z"/><path d="M16375 13305 c-382 -46 -712 -169 -1029 -385 -517 -352 -883 -938 -967 -1550 -17 -124 -17 -487 0 -610 52 -376 227 -781 469 -1085 123 -154 325 -344 488 -457 718 -500 1678 -533 2419 -83 230 139 456 337 617 540 242 304 416 708 469 1085 17 122 17 514 0 640 -18 136 -64 323 -106 432 -45 117 -168 354 -235 454 -29 41 -81 112 -117 156 l-65 81 158 158 159 159 -133 132 -132 133 -159 -159 -159 -159 -68 55 c-233 185 -548 340 -839 412 -241 59 -533 79 -770 51z m560 -390 c197 -30 428 -111 610 -216 118 -67 277 -192 394 -308 206 -206 350 -432 446 -701 111 -314 129 -736 46 -1092 -127 -541 -558 -1041 -1091 -1266 -230 -97 -440 -136 -730 -136 -288 0 -501 40 -730 136 -548 231 -989 756 -1099 1308 -37 188 -42 242 -42 430 0 527 177 957 542 1321 330 328 711 506 1164 543 95 7 390 -4 490 -19z"/><path d="M16427 12324 c-4 -4 -7 -328 -7 -721 l0 -713 190 0 190 0 -2 718 -3 717 -181 3 c-99 1 -183 -1 -187 -4z"/><path d="M3417 4263 c-4 -3 -7 -388 -7 -855 l0 -848 5120 0 5120 0 0 855 0 855 -5113 0 c-2813 0 -5117 -3 -5120 -7z"/></g></svg>